<svg preserveAspectRatio="none" width="100%" height="100%" overflow="visible" style="display: block;" viewBox="0 0 124.8 53.1866" fill="none" xmlns="http://www.w3.org/2000/svg">
<g id="Component 2" clip-path="url(#clip0_0_29)">
<path id="Vector" d="M17.4258 0.368016L12.3107 22.9955C11.7039 25.9432 10.7358 28.0239 9.40649 29.2376C8.0771 30.4513 5.83749 30.957 2.68756 30.7548V26.5067C3.98799 26.5934 4.97054 26.4633 5.6352 26.1166C6.29987 25.7698 6.7189 25.0762 6.89228 24.0359L6.93563 23.7758L0.346781 0.368016H5.07168L7.67255 10.7281L9.14635 17.8371L10.2734 10.7715L12.4408 0.368016H17.4258ZM30.3089 30.7114L25.6706 18.6174L24.1968 21.3917V30.7114H19.4286V0.368016H24.1968V13.5891L30.4389 0.368016H35.2071L28.5749 13.8925L35.2071 30.7114H30.3089ZM41.7554 7.34701V23.7325C41.7554 25.7264 42.5789 26.7234 44.2262 26.7234C45.8734 26.7234 46.697 25.7264 46.697 23.7325V7.34701C46.697 5.35301 45.8734 4.35601 44.2262 4.35601C42.5789 4.35601 41.7554 5.35301 41.7554 7.34701ZM36.9871 23.429V7.65042C36.9871 5.22296 37.6084 3.34456 38.851 2.01523C40.0937 0.6859 41.8854 0.0212366 44.2262 0.0212366C46.5669 0.0212366 48.3587 0.6859 49.6013 2.01523C50.8439 3.34456 51.4652 5.22296 51.4652 7.65042V23.429C51.4652 25.8565 50.8439 27.7348 49.6013 29.0642C48.3587 30.3935 46.5669 31.0582 44.2262 31.0582C41.8854 31.0582 40.0937 30.3935 38.851 29.0642C37.6084 27.7348 36.9871 25.8565 36.9871 23.429ZM53.2201 30.7548V26.42C54.3761 26.42 55.1419 26.2466 55.5176 25.8998C55.9221 25.5241 56.1388 24.6572 56.1678 23.2989L56.948 0.368016H70.4289V30.7114H65.5742V4.70279H61.4128L60.8927 23.0389C60.806 25.8131 60.228 27.7926 59.1588 28.9775C58.0895 30.1624 56.3556 30.7548 53.957 30.7548H53.2201ZM78.4572 7.34701V23.7325C78.4572 25.7264 79.2808 26.7234 80.9281 26.7234C82.5753 26.7234 83.3989 25.7264 83.3989 23.7325V7.34701C83.3989 5.35301 82.5753 4.35601 80.9281 4.35601C79.2808 4.35601 78.4572 5.35301 78.4572 7.34701ZM73.6885 23.429V7.65042C73.6885 5.22296 74.3097 3.34456 75.5529 2.01523C76.7953 0.6859 78.587 0.0212366 80.9281 0.0212366C83.2684 0.0212366 85.0601 0.6859 86.3032 2.01523C87.5457 3.34456 88.1669 5.22296 88.1669 7.65042V23.429C88.1669 25.8565 87.5457 27.7348 86.3032 29.0642C85.0601 30.3935 83.2684 31.0582 80.9281 31.0582C78.587 31.0582 76.7953 30.3935 75.5529 29.0642C74.3097 27.7348 73.6885 25.8565 73.6885 23.429ZM98.4615 0.368016C100.918 0.368016 102.709 0.945988 103.837 2.10192C104.963 3.22896 105.527 4.97732 105.527 7.34701V8.4307C105.527 11.5517 104.501 13.5891 102.449 14.5427C104.819 15.4675 106.004 17.6348 106.004 21.0449V23.5157C106.004 25.8565 105.383 27.6482 104.14 28.8908C102.926 30.1045 101.134 30.7114 98.7644 30.7114H91.2652V0.368016H98.4615ZM98.1579 17.0569H96.0339V26.3766H98.7644C99.6027 26.3766 100.224 26.1599 100.629 25.7264C101.034 25.264 101.235 24.4838 101.235 23.3856V20.7414C101.235 19.3543 100.99 18.4007 100.499 17.8805C100.036 17.3314 99.2558 17.0569 98.1579 17.0569ZM98.331 4.70279H96.0339V12.7221H97.8975C98.8516 12.7221 99.5594 12.4765 100.021 11.9852C100.513 11.494 100.759 10.6703 100.759 9.51439V7.8238C100.759 5.74313 99.9496 4.70279 98.331 4.70279ZM119.453 0.368016L124.307 30.7114H119.496L118.672 25.2062H112.82L111.997 30.7114H107.618L112.474 0.368016H119.453ZM115.725 5.74313L113.427 21.0882H118.022L115.725 5.74313Z" fill="var(--fill-0, white)"/>
<path id="Vector_2" d="M28.9141 40.5879L26.3664 51.4242H25.5638L22.9812 40.6228V51.4416H22.2658V39.2268H23.4174L25.9826 50.0282L28.5302 39.2268H29.6819V51.4416H28.9141V40.5879ZM41.4584 48.7369H37.6544L37.0436 51.4416H36.3107L38.9805 39.2094H40.1497L42.8718 51.4416H42.0691L41.4584 48.7369ZM39.5389 40.1342L37.7765 48.0389H41.3362L39.5389 40.1342ZM52.0424 39.1221C52.9265 39.1221 53.5779 39.4013 53.9967 39.9597C54.4272 40.5065 54.6424 41.2452 54.6424 42.1758V42.4376H53.8746V42.1235C53.8746 40.6112 53.2697 39.855 52.0598 39.855C50.85 39.855 50.2451 40.6054 50.2451 42.106C50.2451 42.5016 50.3265 42.868 50.4893 43.2054C50.6523 43.5427 50.8617 43.8393 51.1175 44.0953C51.3851 44.3396 51.6759 44.5781 51.99 44.8107C52.3041 45.0318 52.6124 45.2644 52.9149 45.5087C53.2289 45.7414 53.514 45.9915 53.7699 46.2591C54.0375 46.5266 54.2527 46.8523 54.4155 47.2362C54.5784 47.6201 54.6598 48.0389 54.6598 48.4926C54.6598 49.4232 54.4446 50.1678 54.0142 50.7262C53.5838 51.2729 52.9207 51.5463 52.0249 51.5463C51.1292 51.5463 50.4661 51.2729 50.0357 50.7262C49.6053 50.1678 49.39 49.4232 49.39 48.4926V47.8644H50.1578V48.545C50.1578 50.0456 50.7744 50.796 52.0075 50.796C53.2406 50.796 53.8571 50.0456 53.8571 48.545C53.8571 48.1494 53.7757 47.7888 53.6128 47.4631C53.45 47.1257 53.2348 46.8349 52.9672 46.5906C52.7113 46.3463 52.4263 46.1078 52.1122 45.8752C51.8097 45.6425 51.5014 45.4098 51.1873 45.1772C50.8732 44.9329 50.5825 44.6769 50.3149 44.4094C50.059 44.1419 49.8496 43.8161 49.6867 43.4322C49.5238 43.0483 49.4424 42.6237 49.4424 42.1584C49.4424 41.2161 49.6576 40.4774 50.088 39.9423C50.5185 39.4071 51.1699 39.1338 52.0424 39.1221ZM64.2243 51.4416H63.4216V39.9597H60.9438V39.2268H66.7196V39.9597H64.2243V51.4416ZM73.9307 44.8805H77.2636V45.6134H73.9307V50.7087H77.9442V51.4416H73.1281V39.2268H77.9442V39.9597H73.9307V44.8805ZM84.6553 39.2268H87.203C88.9479 39.2268 89.8204 40.1459 89.8204 41.9839V43.0483C89.8204 44.4675 89.2327 45.311 88.058 45.5785C89.2327 45.8345 89.8204 46.6662 89.8204 48.0738V49.9758C89.8204 50.6506 89.9188 51.1392 90.1171 51.4416H89.2795C89.105 51.1392 89.0177 50.6506 89.0177 49.9758V48.0564C89.0177 47.2886 88.8258 46.7534 88.4419 46.451C88.058 46.1369 87.4877 45.9799 86.7318 45.9799H85.458V51.4416H84.6553V39.2268ZM85.458 45.247H86.7493C87.5171 45.247 88.0866 45.1016 88.4593 44.8107C88.8314 44.5199 89.0177 43.9848 89.0177 43.2054V42.0537C89.0177 40.6577 88.407 39.9597 87.1855 39.9597H85.458V45.247ZM99.1378 51.4416V46.7476L96.3982 39.2268H97.2358L99.5741 45.6483L101.912 39.2268H102.698L99.9405 46.7476V51.4416H99.1378Z" fill="var(--fill-0, white)"/>
</g>
<defs>
<clipPath id="clip0_0_29">
<rect width="124.8" height="53.1866" fill="white"/>
</clipPath>
</defs>
</svg>
